<?xml version="1.0" encoding="UTF-8" standalone="no"?>
<svg width="73px" height="44px" viewBox="0 0 73 44" version="1.1" xmlns="http://www.w3.org/2000/svg" xmlns:xlink="http://www.w3.org/1999/xlink">
    <defs></defs>
    <g id="Page-1" stroke="none" stroke-width="1" fill="none" fill-rule="evenodd">
        <g id="Artboard-1-Copy-4" transform="translate(-15.000000, -28.000000)" fill="#2b3f44">
            <path d="M59.5727024,55.0676642 C59.0742089,54.7808126 58.4145932,54.4861189 57.549125,54.193 C54.7454375,53.2465625 53.8500625,52.4461875 53.8500625,50.7338125 C53.8500625,49.706625 54.70625,50.0415 55.0815,48.158125 C55.23825,47.37675 55.9946875,48.1450625 56.1395625,46.362625 C56.1395625,45.6513125 55.7263125,45.474375 55.7263125,45.474375 C55.7263125,45.474375 55.9365,44.4234375 56.0184375,43.6135625 C56.1205625,42.605375 55.39025,40 51.5,40 C47.60975,40 46.8794375,42.605375 46.9815625,43.6135625 C47.0646875,44.424625 47.2736875,45.474375 47.2736875,45.474375 C47.2736875,45.474375 46.861625,45.6525 46.861625,46.362625 C47.0053125,48.1450625 47.76175,47.37675 47.9185,48.158125 C48.2949375,50.0415 49.1499375,49.706625 49.1499375,50.7338125 C49.1499375,52.4461875 48.2545625,53.2465625 45.4520625,54.1941875 C44.3399171,54.5706926 43.5675908,54.949796 43.0402153,55.3115409 L43.0402153,55.3115409 C41.3014531,54.673947 40.731625,54.0817402 40.731625,52.909125 C40.731625,52.15225 41.3625,52.399 41.639,51.01125 C41.7545,50.4355 42.311875,51.001625 42.418625,49.68825 C42.418625,49.164125 42.114125,49.03375 42.114125,49.03375 C42.114125,49.03375 42.269,48.259375 42.329375,47.662625 C42.404625,46.91975 41.8665,45 39,45 C36.1335,45 35.595375,46.91975 35.670625,47.662625 C35.731875,48.26025 35.885875,49.03375 35.885875,49.03375 C35.885875,49.03375 35.58225,49.165 35.58225,49.68825 C35.688125,51.001625 36.2455,50.4355 36.361,51.01125 C36.638375,52.399 37.268375,52.15225 37.268375,52.909125 C37.268375,54.170875 36.608625,54.760625 34.543625,55.458875 C32.47075,56.160625 32,56.874625 32,57.362875 L32,58.18275 C32,58.63425 32.391125,59 32.875,59 L39,59 L44.15625,59 L51.5,59 L58.34375,59 L63,59 L69.125,59 C69.608875,59 70,58.63425 70,58.181875 L70,57.362 C70,56.87375 69.52925,56.15975 67.45725,55.458 C65.391375,54.760625 64.731625,54.170875 64.731625,52.909125 C64.731625,52.15225 65.3625,52.399 65.639,51.01125 C65.7545,50.4355 66.311875,51.001625 66.418625,49.68825 C66.418625,49.164125 66.114125,49.03375 66.114125,49.03375 C66.114125,49.03375 66.269,48.259375 66.329375,47.662625 C66.404625,46.91975 65.8665,45 63,45 C60.1335,45 59.595375,46.91975 59.670625,47.662625 C59.731875,48.26025 59.885875,49.03375 59.885875,49.03375 C59.885875,49.03375 59.58225,49.165 59.58225,49.68825 C59.688125,51.001625 60.2455,50.4355 60.361,51.01125 C60.638375,52.399 61.268375,52.15225 61.268375,52.909125 C61.268375,53.9313847 60.8353078,54.5125362 59.5727024,55.0676642 Z M15,33.0045213 C15,30.2406005 17.2446579,28 20.0032113,28 L82.9967887,28 C85.759986,28 88,30.2424579 88,33.0045213 L88,66.9954787 C88,69.7593995 85.7553421,72 82.9967887,72 L20.0032113,72 C17.240014,72 15,69.7575421 15,66.9954787 L15,33.0045213 Z" id="Rectangle-5"></path>
        </g>
    </g>
</svg>
